<svg xmlns="http://www.w3.org/2000/svg" height="512pt" version="1.1" viewBox="-49 0 512 512.00059" width="512pt">
<g id="surface1">
<path d="M 414.300781 255.824219 C 413.097656 264.824219 409.152344 273.183594 402.886719 280.023438 C 402.535156 280.402344 401.003906 282.15625 396.058594 288.5625 C 382.671875 305.890625 369.738281 324.292969 357.605469 343.265625 C 354.351562 348.363281 350.59375 354.199219 346.472656 360.625 C 338.960938 372.320312 330.453125 385.5625 321.3125 399.929688 C 312.320312 414.058594 303.269531 428.265625 299.90625 433.691406 C 272.765625 481.996094 218.484375 512 158.164062 512 C 155.78125 512 153.347656 511.980469 150.863281 511.941406 C 121.378906 511.460938 85.609375 507.585938 56.226562 487.8125 C 40.035156 476.921875 27.152344 462.003906 17.910156 443.480469 C 8.050781 423.726562 2.042969 399.160156 0.0585938 370.476562 L 0.0195312 369.4375 L 0 150.863281 C 0 127.066406 19.363281 107.714844 43.148438 107.714844 C 47.867188 107.714844 52.402344 108.472656 56.65625 109.875 L 56.695312 95.628906 C 56.695312 82.304688 62.121094 69.679688 71.972656 60.109375 C 82.035156 50.335938 95.75 44.980469 109.628906 45.382812 C 116.265625 45.582031 122.691406 47.082031 128.597656 49.765625 C 129.097656 32.988281 137.820312 18.097656 150.863281 9.078125 C 158.894531 3.523438 168.566406 0.1875 178.96875 0.0078125 C 192.632812 -0.242188 205.589844 4.996094 215.480469 14.714844 C 225.449219 24.515625 231.167969 38.121094 231.167969 52.027344 L 231.167969 66.714844 C 236.214844 64.742188 241.660156 63.613281 247.355469 63.511719 C 259.871094 63.28125 271.835938 68.097656 280.925781 77.039062 C 290.085938 86.039062 295.339844 98.53125 295.339844 111.308594 L 295.339844 261.679688 C 311.050781 242.167969 330.863281 222.464844 339.78125 215.898438 C 343.289062 213.324219 347.191406 211.28125 351.398438 209.820312 C 367.09375 204.394531 385.746094 207.839844 398.910156 218.601562 C 410.585938 228.140625 416.191406 241.707031 414.300781 255.824219 Z M 414.300781 255.824219 " style=" stroke:none;fill-rule:nonzero;fill:rgb(100%,50.588235%,42.352941%);fill-opacity:1;" />
<path d="M 414.300781 255.824219 C 413.097656 264.824219 409.152344 273.183594 402.886719 280.023438 C 402.535156 280.402344 401.003906 282.15625 396.058594 288.5625 C 382.671875 305.890625 369.738281 324.292969 357.605469 343.265625 C 354.351562 348.363281 350.59375 354.199219 346.472656 360.625 C 338.960938 372.320312 330.453125 385.5625 321.3125 399.929688 C 312.320312 414.058594 303.269531 428.265625 299.90625 433.691406 C 272.765625 481.996094 218.484375 512 158.164062 512 C 155.78125 512 153.347656 511.980469 150.863281 511.941406 L 150.863281 9.078125 C 158.894531 3.523438 168.566406 0.1875 178.96875 0.0078125 C 192.632812 -0.242188 205.589844 4.996094 215.480469 14.714844 C 225.449219 24.515625 231.167969 38.121094 231.167969 52.027344 L 231.167969 66.714844 C 236.214844 64.742188 241.660156 63.613281 247.355469 63.511719 C 259.871094 63.28125 271.835938 68.097656 280.925781 77.039062 C 290.085938 86.039062 295.339844 98.53125 295.339844 111.308594 L 295.339844 261.679688 C 311.050781 242.167969 330.863281 222.464844 339.78125 215.898438 C 343.289062 213.324219 347.191406 211.28125 351.398438 209.820312 C 367.09375 204.394531 385.746094 207.839844 398.910156 218.601562 C 410.585938 228.140625 416.191406 241.707031 414.300781 255.824219 Z M 414.300781 255.824219 " style=" stroke:none;fill-rule:nonzero;fill:rgb(93.72549%,24.313725%,20.784314%);fill-opacity:1;" />
<path d="M 398.910156 218.601562 C 385.746094 207.839844 367.09375 204.394531 351.398438 209.820312 C 347.191406 211.28125 343.289062 213.324219 339.78125 215.898438 C 330.863281 222.464844 311.050781 242.167969 295.339844 261.679688 L 295.339844 111.308594 C 295.339844 98.53125 290.085938 86.039062 280.925781 77.039062 C 271.835938 68.097656 259.871094 63.28125 247.355469 63.511719 C 241.660156 63.613281 236.214844 64.742188 231.167969 66.714844 L 231.167969 52.027344 C 231.167969 38.121094 225.449219 24.515625 215.480469 14.714844 C 205.589844 4.996094 192.632812 -0.242188 178.96875 0.0078125 C 168.566406 0.1875 158.894531 3.523438 150.863281 9.078125 C 137.820312 18.097656 129.097656 32.988281 128.597656 49.765625 C 122.691406 47.082031 116.265625 45.582031 109.628906 45.382812 C 95.75 44.980469 82.035156 50.335938 71.972656 60.109375 C 62.121094 69.679688 56.695312 82.304688 56.695312 95.628906 L 56.65625 109.875 C 52.402344 108.472656 47.867188 107.714844 43.148438 107.714844 C 19.363281 107.714844 0 127.066406 0 150.863281 L 0.0195312 369.4375 L 0.0585938 370.476562 C 2.042969 399.160156 8.050781 423.726562 17.910156 443.480469 C 27.152344 462.003906 40.035156 476.921875 56.226562 487.8125 C 85.609375 507.585938 121.378906 511.460938 150.863281 511.941406 C 153.347656 511.980469 155.78125 512 158.164062 512 C 218.484375 512 272.765625 481.996094 299.90625 433.691406 C 303.269531 428.265625 312.320312 414.058594 321.3125 399.929688 C 330.453125 385.5625 338.960938 372.320312 346.472656 360.625 C 350.59375 354.199219 354.351562 348.363281 357.605469 343.265625 C 369.738281 324.292969 382.671875 305.890625 396.058594 288.5625 C 401.003906 282.15625 402.535156 280.402344 402.886719 280.023438 C 409.152344 273.183594 413.097656 264.824219 414.300781 255.824219 C 416.191406 241.707031 410.585938 228.140625 398.910156 218.601562 Z M 384.535156 251.839844 C 384.144531 254.722656 382.832031 257.445312 380.75 259.730469 C 379.738281 260.832031 377.757812 263.113281 372.28125 270.199219 C 358.363281 288.230469 344.910156 307.363281 332.304688 327.085938 C 329.050781 332.164062 325.316406 337.988281 321.203125 344.398438 C 313.671875 356.109375 305.152344 369.386719 295.972656 383.800781 C 284.75 401.433594 277.191406 413.328125 274.199219 418.152344 L 273.855469 418.734375 C 252.070312 457.738281 207.742188 481.964844 158.164062 481.964844 C 155.789062 481.964844 153.347656 481.945312 150.863281 481.894531 C 125.734375 481.457031 95.859375 478.273438 72.996094 462.894531 C 47.375 445.652344 33.328125 414.910156 30.054688 368.914062 L 30.035156 150.851562 C 30.035156 143.625 35.921875 137.746094 43.148438 137.746094 C 50.429688 137.746094 56.34375 143.625 56.34375 150.851562 L 56.34375 232.65625 C 56.34375 232.898438 56.367188 233.136719 56.375 233.378906 C 56.394531 233.648438 56.394531 233.917969 56.425781 234.179688 C 56.445312 234.417969 56.496094 234.648438 56.527344 234.878906 C 56.566406 235.140625 56.597656 235.410156 56.644531 235.671875 C 56.695312 235.902344 56.765625 236.132812 56.824219 236.363281 C 56.886719 236.613281 56.9375 236.863281 57.015625 237.113281 C 57.085938 237.34375 57.175781 237.5625 57.265625 237.792969 C 57.347656 238.023438 57.425781 238.265625 57.515625 238.484375 C 57.617188 238.714844 57.726562 238.925781 57.835938 239.144531 C 57.9375 239.367188 58.039062 239.585938 58.148438 239.804688 C 58.269531 240.015625 58.398438 240.214844 58.527344 240.425781 C 58.648438 240.625 58.769531 240.835938 58.898438 241.039062 C 59.027344 241.238281 59.1875 241.425781 59.328125 241.617188 C 59.46875 241.808594 59.609375 242.007812 59.757812 242.199219 C 59.910156 242.378906 60.078125 242.550781 60.238281 242.71875 C 60.398438 242.910156 60.558594 243.089844 60.730469 243.269531 C 60.890625 243.429688 61.070312 243.582031 61.25 243.742188 C 61.429688 243.902344 61.601562 244.082031 61.792969 244.242188 C 61.972656 244.382812 62.171875 244.511719 62.351562 244.652344 C 62.550781 244.800781 62.742188 244.960938 62.953125 245.101562 C 63.144531 245.230469 63.34375 245.34375 63.535156 245.460938 C 63.753906 245.59375 63.964844 245.734375 64.183594 245.851562 C 64.394531 245.964844 64.605469 246.054688 64.816406 246.152344 C 65.035156 246.273438 65.265625 246.394531 65.496094 246.492188 C 65.714844 246.582031 65.945312 246.652344 66.167969 246.734375 C 66.398438 246.824219 66.636719 246.925781 66.878906 246.996094 C 67.109375 247.0625 67.347656 247.113281 67.589844 247.183594 C 67.828125 247.246094 68.070312 247.316406 68.320312 247.363281 C 68.558594 247.414062 68.820312 247.445312 69.070312 247.484375 C 69.308594 247.523438 69.5625 247.574219 69.8125 247.59375 C 70.0625 247.625 70.3125 247.625 70.570312 247.636719 C 70.820312 247.65625 71.074219 247.675781 71.324219 247.675781 L 71.363281 247.675781 C 71.882812 247.675781 72.394531 247.65625 72.894531 247.605469 C 73.113281 247.574219 73.335938 247.535156 73.546875 247.503906 C 73.824219 247.464844 74.105469 247.425781 74.386719 247.375 C 74.675781 247.316406 74.945312 247.234375 75.238281 247.15625 C 75.425781 247.105469 75.628906 247.0625 75.816406 247.003906 C 76.136719 246.902344 76.4375 246.785156 76.738281 246.664062 C 76.890625 246.613281 77.050781 246.5625 77.199219 246.503906 C 77.5 246.375 77.789062 246.222656 78.089844 246.074219 C 78.230469 246.003906 78.371094 245.941406 78.511719 245.871094 C 78.78125 245.722656 79.042969 245.550781 79.3125 245.382812 C 79.453125 245.292969 79.601562 245.210938 79.753906 245.121094 C 79.992188 244.953125 80.222656 244.773438 80.453125 244.589844 C 80.601562 244.480469 80.765625 244.371094 80.902344 244.25 C 81.113281 244.082031 81.3125 243.890625 81.515625 243.699219 C 81.664062 243.558594 81.824219 243.429688 81.976562 243.289062 C 82.15625 243.101562 82.324219 242.898438 82.503906 242.699219 C 82.644531 242.539062 82.804688 242.390625 82.9375 242.21875 C 83.097656 242.027344 83.238281 241.828125 83.386719 241.628906 C 83.527344 241.4375 83.675781 241.257812 83.808594 241.066406 C 83.9375 240.867188 84.058594 240.65625 84.175781 240.457031 C 84.308594 240.246094 84.4375 240.046875 84.558594 239.824219 C 84.667969 239.625 84.769531 239.40625 84.867188 239.183594 C 84.980469 238.964844 85.097656 238.746094 85.1875 238.515625 C 85.289062 238.304688 85.359375 238.074219 85.4375 237.855469 C 85.527344 237.613281 85.621094 237.382812 85.699219 237.144531 C 85.769531 236.914062 85.820312 236.671875 85.878906 236.441406 C 85.941406 236.191406 86.019531 235.953125 86.070312 235.699219 C 86.121094 235.472656 86.140625 235.21875 86.179688 234.980469 C 86.21875 234.730469 86.269531 234.46875 86.300781 234.210938 C 86.320312 233.96875 86.320312 233.71875 86.339844 233.480469 C 86.351562 233.21875 86.378906 232.957031 86.378906 232.699219 L 86.730469 95.667969 C 86.730469 90.503906 88.914062 85.527344 92.898438 81.664062 C 97.164062 77.519531 102.949219 75.226562 108.734375 75.40625 C 119.570312 75.726562 128.390625 85.15625 128.390625 96.441406 L 128.558594 231.867188 C 128.558594 232.136719 128.589844 232.398438 128.597656 232.667969 C 128.609375 232.90625 128.609375 233.148438 128.640625 233.386719 C 128.667969 233.667969 128.71875 233.9375 128.757812 234.210938 C 128.800781 234.429688 128.820312 234.660156 128.859375 234.878906 C 128.929688 235.179688 129.007812 235.460938 129.089844 235.75 C 129.140625 235.941406 129.179688 236.132812 129.230469 236.3125 C 129.328125 236.632812 129.449219 236.933594 129.570312 237.242188 C 129.628906 237.394531 129.679688 237.542969 129.742188 237.695312 C 129.878906 238.023438 130.039062 238.335938 130.199219 238.65625 C 130.261719 238.765625 130.3125 238.894531 130.371094 239.003906 C 130.550781 239.324219 130.742188 239.636719 130.941406 239.945312 C 131 240.046875 131.0625 240.144531 131.121094 240.246094 C 131.332031 240.546875 131.5625 240.835938 131.78125 241.128906 C 131.851562 241.21875 131.914062 241.316406 131.992188 241.398438 C 132.242188 241.707031 132.511719 242 132.792969 242.289062 C 132.855469 242.339844 132.902344 242.410156 132.953125 242.46875 C 133.246094 242.75 133.542969 243.019531 133.855469 243.28125 C 133.914062 243.328125 133.964844 243.390625 134.023438 243.429688 C 134.324219 243.691406 134.644531 243.921875 134.976562 244.152344 C 135.046875 244.191406 135.105469 244.25 135.175781 244.300781 C 135.507812 244.519531 135.847656 244.722656 136.199219 244.910156 C 136.269531 244.960938 136.339844 245.011719 136.417969 245.050781 C 136.777344 245.242188 137.148438 245.421875 137.519531 245.582031 C 137.589844 245.613281 137.660156 245.652344 137.730469 245.683594 C 138.109375 245.84375 138.511719 245.984375 138.902344 246.113281 C 138.972656 246.132812 139.042969 246.164062 139.109375 246.183594 C 139.5 246.3125 139.902344 246.402344 140.3125 246.492188 C 140.394531 246.511719 140.460938 246.542969 140.554688 246.554688 C 141.523438 246.753906 142.535156 246.863281 143.578125 246.863281 C 143.578125 246.863281 143.585938 246.863281 143.597656 246.863281 C 143.855469 246.863281 144.117188 246.832031 144.378906 246.824219 C 144.617188 246.804688 144.878906 246.804688 145.117188 246.785156 C 145.386719 246.753906 145.660156 246.703125 145.917969 246.664062 C 146.148438 246.625 146.378906 246.605469 146.609375 246.554688 C 146.878906 246.503906 147.140625 246.421875 147.410156 246.351562 C 147.621094 246.292969 147.839844 246.253906 148.050781 246.183594 C 148.320312 246.101562 148.570312 245.992188 148.832031 245.894531 C 149.03125 245.824219 149.234375 245.761719 149.421875 245.683594 C 149.703125 245.5625 149.953125 245.421875 150.222656 245.292969 C 150.394531 245.210938 150.574219 245.140625 150.734375 245.042969 C 150.773438 245.023438 150.824219 244.992188 150.863281 244.960938 C 151.085938 244.851562 151.285156 244.710938 151.496094 244.589844 C 151.65625 244.492188 151.816406 244.402344 151.976562 244.292969 C 152.214844 244.128906 152.4375 243.949219 152.667969 243.78125 C 152.816406 243.660156 152.988281 243.550781 153.136719 243.429688 C 153.347656 243.25 153.546875 243.050781 153.757812 242.859375 C 153.910156 242.730469 154.058594 242.597656 154.199219 242.457031 C 154.390625 242.257812 154.570312 242.046875 154.75 241.847656 C 154.890625 241.699219 155.039062 241.546875 155.167969 241.386719 C 155.328125 241.1875 155.480469 240.976562 155.640625 240.765625 C 155.769531 240.585938 155.910156 240.417969 156.03125 240.238281 C 156.171875 240.027344 156.289062 239.804688 156.421875 239.59375 C 156.542969 239.394531 156.671875 239.207031 156.78125 238.996094 C 156.902344 238.785156 156.992188 238.554688 157.101562 238.335938 C 157.203125 238.113281 157.320312 237.902344 157.414062 237.683594 C 157.503906 237.464844 157.574219 237.234375 157.664062 237.011719 C 157.742188 236.78125 157.84375 236.542969 157.921875 236.300781 C 157.992188 236.070312 158.042969 235.832031 158.101562 235.589844 C 158.164062 235.351562 158.234375 235.109375 158.292969 234.859375 C 158.332031 234.621094 158.363281 234.371094 158.402344 234.121094 C 158.445312 233.867188 158.492188 233.617188 158.511719 233.367188 C 158.542969 233.117188 158.542969 232.859375 158.554688 232.609375 C 158.5625 232.347656 158.59375 232.097656 158.59375 231.847656 L 158.59375 51.308594 C 158.59375 39.785156 167.964844 30.242188 179.488281 30.042969 C 185.023438 29.941406 190.320312 32.105469 194.425781 36.140625 C 198.691406 40.324219 201.132812 46.121094 201.132812 52.027344 L 201.132812 107.460938 C 201.0625 108.535156 201.011719 109.605469 201.011719 110.6875 L 201.132812 232.675781 C 201.132812 232.949219 201.164062 233.21875 201.171875 233.480469 C 201.191406 233.71875 201.191406 233.96875 201.214844 234.199219 C 201.242188 234.480469 201.292969 234.75 201.34375 235.019531 C 201.375 235.25 201.394531 235.472656 201.441406 235.691406 C 201.503906 235.980469 201.582031 236.261719 201.652344 236.542969 C 201.714844 236.730469 201.753906 236.933594 201.8125 237.132812 C 201.902344 237.433594 202.023438 237.722656 202.132812 238.015625 C 202.195312 238.183594 202.242188 238.355469 202.3125 238.515625 C 202.453125 238.835938 202.613281 239.144531 202.765625 239.445312 C 202.835938 239.574219 202.886719 239.707031 202.945312 239.824219 C 203.125 240.144531 203.316406 240.445312 203.515625 240.757812 C 203.574219 240.855469 203.636719 240.957031 203.695312 241.058594 C 203.925781 241.386719 204.167969 241.699219 204.40625 242.007812 C 204.464844 242.078125 204.507812 242.148438 204.566406 242.21875 C 204.835938 242.550781 205.136719 242.859375 205.4375 243.167969 C 205.46875 243.210938 205.496094 243.25 205.539062 243.28125 C 205.839844 243.582031 206.160156 243.871094 206.480469 244.140625 C 206.519531 244.179688 206.558594 244.210938 206.597656 244.25 C 209.191406 246.394531 212.527344 247.675781 216.148438 247.675781 C 216.160156 247.675781 216.160156 247.675781 216.171875 247.675781 C 216.429688 247.675781 216.691406 247.65625 216.960938 247.636719 C 217.203125 247.625 217.453125 247.625 217.691406 247.59375 C 217.972656 247.574219 218.242188 247.515625 218.511719 247.476562 C 218.734375 247.433594 218.964844 247.414062 219.183594 247.375 C 219.472656 247.316406 219.765625 247.222656 220.042969 247.15625 C 220.234375 247.09375 220.433594 247.0625 220.625 247.003906 C 220.925781 246.902344 221.226562 246.785156 221.515625 246.671875 C 221.675781 246.613281 221.847656 246.5625 221.996094 246.492188 C 222.308594 246.363281 222.597656 246.214844 222.886719 246.074219 C 223.027344 246.003906 223.179688 245.941406 223.320312 245.863281 C 223.597656 245.703125 223.878906 245.53125 224.148438 245.351562 C 224.28125 245.273438 224.417969 245.203125 224.550781 245.113281 C 224.832031 244.921875 225.101562 244.710938 225.359375 244.5 C 225.480469 244.410156 225.601562 244.339844 225.710938 244.242188 C 225.972656 244.03125 226.222656 243.789062 226.472656 243.550781 C 226.574219 243.460938 226.671875 243.371094 226.773438 243.28125 C 227.011719 243.03125 227.242188 242.769531 227.464844 242.519531 C 227.554688 242.410156 227.652344 242.320312 227.742188 242.207031 C 227.953125 241.949219 228.152344 241.667969 228.355469 241.398438 C 228.433594 241.277344 228.523438 241.167969 228.605469 241.058594 C 228.792969 240.777344 228.953125 240.496094 229.113281 240.207031 C 229.195312 240.074219 229.285156 239.945312 229.355469 239.816406 C 229.515625 239.527344 229.644531 239.226562 229.785156 238.925781 C 229.855469 238.785156 229.925781 238.644531 229.984375 238.503906 C 230.117188 238.214844 230.214844 237.902344 230.316406 237.601562 C 230.375 237.441406 230.445312 237.28125 230.496094 237.121094 C 230.585938 236.832031 230.648438 236.53125 230.71875 236.242188 C 230.765625 236.050781 230.828125 235.871094 230.867188 235.679688 C 230.925781 235.390625 230.957031 235.089844 230.996094 234.800781 C 231.027344 234.589844 231.066406 234.398438 231.085938 234.1875 C 231.117188 233.917969 231.117188 233.628906 231.136719 233.359375 C 231.148438 233.117188 231.167969 232.898438 231.167969 232.65625 L 231.167969 108.703125 C 232.148438 100.324219 239.257812 93.695312 247.867188 93.546875 C 252.292969 93.464844 256.578125 95.207031 259.871094 98.453125 C 263.324219 101.847656 265.308594 106.53125 265.308594 111.308594 L 265.308594 288.570312 L 265.316406 289.242188 C 265.398438 298.972656 271.785156 307.195312 281.207031 309.707031 C 290.578125 312.199219 300.136719 308.265625 305.0625 299.835938 L 305.152344 299.664062 C 316.925781 279.089844 348.402344 246.84375 357.582031 240.085938 C 358.644531 239.304688 359.867188 238.675781 361.21875 238.214844 C 367.195312 236.140625 374.703125 237.601562 379.898438 241.859375 C 382.351562 243.859375 385.144531 247.222656 384.535156 251.839844 Z M 384.535156 251.839844 " style=" stroke:none;fill-rule:nonzero;fill:rgb(100%,76.862745%,46.666667%);fill-opacity:1;" />
<path d="M 414.300781 255.824219 C 413.097656 264.824219 409.152344 273.183594 402.886719 280.023438 C 402.535156 280.402344 401.003906 282.15625 396.058594 288.5625 C 382.671875 305.890625 369.738281 324.292969 357.605469 343.265625 C 354.351562 348.363281 350.59375 354.199219 346.472656 360.625 C 338.960938 372.320312 330.453125 385.5625 321.3125 399.929688 C 312.320312 414.058594 303.269531 428.265625 299.90625 433.691406 C 272.765625 481.996094 218.484375 512 158.164062 512 C 155.78125 512 153.347656 511.980469 150.863281 511.941406 L 150.863281 481.894531 C 153.347656 481.945312 155.789062 481.964844 158.164062 481.964844 C 207.742188 481.964844 252.070312 457.738281 273.855469 418.734375 L 274.199219 418.152344 C 277.191406 413.328125 284.75 401.433594 295.972656 383.800781 C 305.152344 369.386719 313.671875 356.109375 321.203125 344.398438 C 325.316406 337.988281 329.050781 332.164062 332.304688 327.085938 C 344.910156 307.363281 358.363281 288.230469 372.28125 270.199219 C 377.757812 263.113281 379.738281 260.832031 380.75 259.730469 C 382.832031 257.445312 384.144531 254.722656 384.535156 251.839844 C 385.144531 247.222656 382.351562 243.859375 379.898438 241.859375 C 374.703125 237.601562 367.195312 236.140625 361.21875 238.214844 C 359.867188 238.675781 358.644531 239.304688 357.582031 240.085938 C 348.402344 246.84375 316.925781 279.089844 305.152344 299.664062 L 305.0625 299.835938 C 300.136719 308.265625 290.578125 312.199219 281.207031 309.707031 C 271.785156 307.195312 265.398438 298.972656 265.316406 289.242188 L 265.308594 288.570312 L 265.308594 111.308594 C 265.308594 106.53125 263.324219 101.847656 259.871094 98.453125 C 256.578125 95.207031 252.292969 93.464844 247.867188 93.546875 C 239.257812 93.695312 232.148438 100.324219 231.167969 108.703125 L 231.167969 232.65625 C 231.167969 232.898438 231.148438 233.117188 231.136719 233.359375 C 231.117188 233.628906 231.117188 233.917969 231.085938 234.1875 C 231.066406 234.398438 231.027344 234.589844 230.996094 234.800781 C 230.957031 235.089844 230.925781 235.390625 230.867188 235.679688 C 230.828125 235.871094 230.765625 236.050781 230.71875 236.242188 C 230.648438 236.53125 230.585938 236.832031 230.496094 237.121094 C 230.445312 237.28125 230.375 237.441406 230.316406 237.601562 C 230.214844 237.902344 230.117188 238.214844 229.984375 238.503906 C 229.925781 238.644531 229.855469 238.785156 229.785156 238.925781 C 229.644531 239.226562 229.515625 239.527344 229.355469 239.816406 C 229.285156 239.945312 229.195312 240.074219 229.113281 240.207031 C 228.953125 240.496094 228.792969 240.777344 228.605469 241.058594 C 228.523438 241.167969 228.433594 241.277344 228.355469 241.398438 C 228.152344 241.667969 227.953125 241.949219 227.742188 242.207031 C 227.652344 242.320312 227.554688 242.410156 227.464844 242.519531 C 227.242188 242.769531 227.011719 243.03125 226.773438 243.28125 C 226.671875 243.371094 226.574219 243.460938 226.472656 243.550781 C 226.222656 243.789062 225.972656 244.03125 225.710938 244.242188 C 225.601562 244.339844 225.480469 244.410156 225.359375 244.5 C 225.101562 244.710938 224.832031 244.921875 224.550781 245.113281 C 224.417969 245.203125 224.28125 245.273438 224.148438 245.351562 C 223.878906 245.53125 223.597656 245.703125 223.320312 245.863281 C 223.179688 245.941406 223.027344 246.003906 222.886719 246.074219 C 222.597656 246.214844 222.308594 246.363281 221.996094 246.492188 C 221.847656 246.5625 221.675781 246.613281 221.515625 246.671875 C 221.226562 246.785156 220.925781 246.902344 220.625 247.003906 C 220.433594 247.0625 220.234375 247.09375 220.042969 247.15625 C 219.765625 247.222656 219.472656 247.316406 219.183594 247.375 C 218.964844 247.414062 218.734375 247.433594 218.511719 247.476562 C 218.242188 247.515625 217.972656 247.574219 217.691406 247.59375 C 217.453125 247.625 217.203125 247.625 216.960938 247.636719 C 216.691406 247.65625 216.429688 247.675781 216.171875 247.675781 C 216.160156 247.675781 216.160156 247.675781 216.148438 247.675781 C 212.527344 247.675781 209.191406 246.394531 206.597656 244.25 C 206.558594 244.210938 206.519531 244.179688 206.480469 244.140625 C 206.160156 243.871094 205.839844 243.582031 205.539062 243.28125 C 205.496094 243.25 205.46875 243.210938 205.4375 243.167969 C 205.136719 242.859375 204.835938 242.550781 204.566406 242.21875 C 204.507812 242.148438 204.464844 242.078125 204.40625 242.007812 C 204.167969 241.699219 203.925781 241.386719 203.695312 241.058594 C 203.636719 240.957031 203.574219 240.855469 203.515625 240.757812 C 203.316406 240.445312 203.125 240.144531 202.945312 239.824219 C 202.886719 239.707031 202.835938 239.574219 202.765625 239.445312 C 202.613281 239.144531 202.453125 238.835938 202.3125 238.515625 C 202.242188 238.355469 202.195312 238.183594 202.132812 238.015625 C 202.023438 237.722656 201.902344 237.433594 201.8125 237.132812 C 201.753906 236.933594 201.714844 236.730469 201.652344 236.542969 C 201.582031 236.261719 201.503906 235.980469 201.441406 235.691406 C 201.394531 235.472656 201.375 235.25 201.34375 235.019531 C 201.292969 234.75 201.242188 234.480469 201.214844 234.199219 C 201.191406 233.96875 201.191406 233.71875 201.171875 233.480469 C 201.164062 233.21875 201.132812 232.949219 201.132812 232.675781 L 201.011719 110.6875 C 201.011719 109.605469 201.0625 108.535156 201.132812 107.460938 L 201.132812 52.027344 C 201.132812 46.121094 198.691406 40.324219 194.425781 36.140625 C 190.320312 32.105469 185.023438 29.941406 179.488281 30.042969 C 167.964844 30.242188 158.59375 39.785156 158.59375 51.308594 L 158.59375 231.847656 C 158.59375 232.097656 158.5625 232.347656 158.554688 232.609375 C 158.542969 232.859375 158.542969 233.117188 158.511719 233.367188 C 158.492188 233.617188 158.445312 233.867188 158.402344 234.121094 C 158.363281 234.371094 158.332031 234.621094 158.292969 234.859375 C 158.234375 235.109375 158.164062 235.351562 158.101562 235.589844 C 158.042969 235.832031 157.992188 236.070312 157.921875 236.300781 C 157.84375 236.542969 157.742188 236.78125 157.664062 237.011719 C 157.574219 237.234375 157.503906 237.464844 157.414062 237.683594 C 157.320312 237.902344 157.203125 238.113281 157.101562 238.335938 C 156.992188 238.554688 156.902344 238.785156 156.78125 238.996094 C 156.671875 239.207031 156.542969 239.394531 156.421875 239.59375 C 156.289062 239.804688 156.171875 240.027344 156.03125 240.238281 C 155.910156 240.417969 155.769531 240.585938 155.640625 240.765625 C 155.480469 240.976562 155.328125 241.1875 155.167969 241.386719 C 155.039062 241.546875 154.890625 241.699219 154.75 241.847656 C 154.570312 242.046875 154.390625 242.257812 154.199219 242.457031 C 154.058594 242.597656 153.910156 242.730469 153.757812 242.859375 C 153.546875 243.050781 153.347656 243.25 153.136719 243.429688 C 152.988281 243.550781 152.816406 243.660156 152.667969 243.78125 C 152.4375 243.949219 152.214844 244.128906 151.976562 244.292969 C 151.816406 244.402344 151.65625 244.492188 151.496094 244.589844 C 151.285156 244.710938 151.085938 244.851562 150.863281 244.960938 L 150.863281 9.078125 C 158.894531 3.523438 168.566406 0.1875 178.96875 0.0078125 C 192.632812 -0.242188 205.589844 4.996094 215.480469 14.714844 C 225.449219 24.515625 231.167969 38.121094 231.167969 52.027344 L 231.167969 66.714844 C 236.214844 64.742188 241.660156 63.613281 247.355469 63.511719 C 259.871094 63.28125 271.835938 68.097656 280.925781 77.039062 C 290.085938 86.039062 295.339844 98.53125 295.339844 111.308594 L 295.339844 261.679688 C 311.050781 242.167969 330.863281 222.464844 339.78125 215.898438 C 343.289062 213.324219 347.191406 211.28125 351.398438 209.820312 C 367.09375 204.394531 385.746094 207.839844 398.910156 218.601562 C 410.585938 228.140625 416.191406 241.707031 414.300781 255.824219 Z M 414.300781 255.824219 " style=" stroke:none;fill-rule:nonzero;fill:rgb(100%,56.862745%,0%);fill-opacity:1;" />
</g>
</svg>