<svg xmlns="http://www.w3.org/2000/svg" height="511pt" version="1.1" viewBox="-38 0 511 511.99956" width="511pt">
<g id="surface1">
<path d="M 413.476562 341.910156 C 399.714844 379.207031 378.902344 411.636719 351.609375 438.289062 C 320.542969 468.625 279.863281 492.730469 230.699219 509.925781 C 229.085938 510.488281 227.402344 510.949219 225.710938 511.289062 C 223.476562 511.730469 221.203125 511.96875 218.949219 512 L 218.507812 512 C 216.105469 512 213.691406 511.757812 211.296875 511.289062 C 209.605469 510.949219 207.945312 510.488281 206.339844 509.9375 C 157.117188 492.769531 116.386719 468.675781 85.289062 438.339844 C 57.984375 411.6875 37.175781 379.277344 23.433594 341.980469 C -1.554688 274.167969 -0.132812 199.464844 1.011719 139.433594 L 1.03125 138.511719 C 1.261719 133.554688 1.410156 128.347656 1.492188 122.597656 C 1.910156 94.367188 24.355469 71.011719 52.589844 69.4375 C 111.457031 66.152344 156.996094 46.953125 195.90625 9.027344 L 196.246094 8.714844 C 202.707031 2.789062 210.847656 -0.117188 218.949219 0.00390625 C 226.761719 0.105469 234.542969 3.007812 240.773438 8.714844 L 241.105469 9.027344 C 280.023438 46.953125 325.5625 66.152344 384.429688 69.4375 C 412.664062 71.011719 435.109375 94.367188 435.527344 122.597656 C 435.609375 128.386719 435.757812 133.585938 435.988281 138.511719 L 436 138.902344 C 437.140625 199.046875 438.554688 273.898438 413.476562 341.910156 Z M 413.476562 341.910156 " style=" stroke:none;fill-rule:nonzero;fill:rgb(100%,50.588235%,42.352941%);fill-opacity:1;" />
<path d="M 413.476562 341.910156 C 399.714844 379.207031 378.902344 411.636719 351.609375 438.289062 C 320.542969 468.625 279.863281 492.730469 230.699219 509.925781 C 229.085938 510.488281 227.402344 510.949219 225.710938 511.289062 C 223.476562 511.730469 221.203125 511.96875 218.949219 512 L 218.949219 0.00390625 C 226.761719 0.105469 234.542969 3.007812 240.773438 8.714844 L 241.105469 9.027344 C 280.023438 46.953125 325.5625 66.152344 384.429688 69.4375 C 412.664062 71.011719 435.109375 94.367188 435.527344 122.597656 C 435.609375 128.386719 435.757812 133.585938 435.988281 138.511719 L 436 138.902344 C 437.140625 199.046875 438.554688 273.898438 413.476562 341.910156 Z M 413.476562 341.910156 " style=" stroke:none;fill-rule:nonzero;fill:rgb(93.72549%,24.313725%,20.784314%);fill-opacity:1;" />
<path d="M 346.101562 256 C 346.101562 326.207031 289.097656 383.355469 218.949219 383.605469 L 218.5 383.605469 C 148.144531 383.605469 90.894531 326.359375 90.894531 256 C 90.894531 185.644531 148.144531 128.398438 218.5 128.398438 L 218.949219 128.398438 C 289.097656 128.648438 346.101562 185.796875 346.101562 256 Z M 346.101562 256 " style=" stroke:none;fill-rule:nonzero;fill:rgb(100%,100%,100%);fill-opacity:1;" />
<path d="M 346.101562 256 C 346.101562 326.207031 289.097656 383.355469 218.949219 383.605469 L 218.949219 128.398438 C 289.097656 128.648438 346.101562 185.796875 346.101562 256 Z M 346.101562 256 " style=" stroke:none;fill-rule:nonzero;fill:rgb(88.235294%,92.156863%,94.117647%);fill-opacity:1;" />
<path d="M 264.523438 283.332031 C 270.382812 289.191406 270.382812 298.707031 264.523438 304.574219 C 261.589844 307.507812 257.742188 308.972656 253.898438 308.972656 C 250.050781 308.972656 246.207031 307.507812 243.269531 304.574219 L 218.953125 280.25 L 194.628906 304.574219 C 191.691406 307.507812 187.847656 308.972656 184 308.972656 C 180.15625 308.972656 176.320312 307.507812 173.386719 304.574219 C 167.515625 298.707031 167.515625 289.191406 173.386719 283.332031 L 197.703125 259.007812 L 173.386719 234.679688 C 167.515625 228.820312 167.515625 219.304688 173.386719 213.4375 C 179.242188 207.566406 188.757812 207.566406 194.628906 213.4375 L 218.953125 237.765625 L 243.269531 213.4375 C 249.140625 207.566406 258.65625 207.566406 264.523438 213.4375 C 270.382812 219.304688 270.382812 228.820312 264.523438 234.679688 L 240.195312 259.007812 Z M 264.523438 283.332031 " style=" stroke:none;fill-rule:nonzero;fill:rgb(70.588235%,82.352941%,84.313725%);fill-opacity:1;" />
<path d="M 264.523438 283.332031 C 270.382812 289.191406 270.382812 298.707031 264.523438 304.574219 C 261.589844 307.507812 257.742188 308.972656 253.898438 308.972656 C 250.050781 308.972656 246.207031 307.507812 243.269531 304.574219 L 218.953125 280.25 L 218.953125 237.765625 L 243.269531 213.4375 C 249.140625 207.566406 258.65625 207.566406 264.523438 213.4375 C 270.382812 219.304688 270.382812 228.820312 264.523438 234.679688 L 240.195312 259.007812 Z M 264.523438 283.332031 " style=" stroke:none;fill-rule:nonzero;fill:rgb(43.529412%,64.705882%,66.666667%);fill-opacity:1;" />
</g>
</svg>